<svg width="20" height="20" viewBox="0 0 20 20" fill="none" xmlns="http://www.w3.org/2000/svg">
<path fill-rule="evenodd" clip-rule="evenodd" d="M19.27 0H0V19.27H19.27V0ZM9.635 2.40875C9.84795 2.40875 10.0522 2.49334 10.2027 2.64392C10.3533 2.7945 10.4379 2.99872 10.4379 3.21167V4.01458C11.1022 4.01448 11.7502 4.22036 12.2926 4.60387C12.835 4.98738 13.2451 5.52964 13.4665 6.15596C13.533 6.3556 13.5184 6.57335 13.4259 6.76235C13.3335 6.95135 13.1705 7.09651 12.9721 7.16659C12.7737 7.23666 12.5557 7.22606 12.3651 7.13707C12.1744 7.04807 12.0263 6.88779 11.9526 6.6907C11.8418 6.37756 11.6367 6.10646 11.3654 5.91478C11.0941 5.72309 10.7701 5.62025 10.4379 5.62042V8.83208C11.2897 8.83208 12.1066 9.17046 12.7089 9.77276C13.3112 10.3751 13.6496 11.192 13.6496 12.0438C13.6496 12.8955 13.3112 13.7124 12.7089 14.3147C12.1066 14.917 11.2897 15.2554 10.4379 15.2554V16.0583C10.4379 16.2713 10.3533 16.4755 10.2027 16.6261C10.0522 16.7767 9.84795 16.8612 9.635 16.8612C9.42205 16.8612 9.21783 16.7767 9.06725 16.6261C8.91668 16.4755 8.83208 16.2713 8.83208 16.0583V15.2554C8.16779 15.2555 7.51981 15.0496 6.9774 14.6661C6.435 14.2826 6.02486 13.7404 5.80348 13.114C5.73704 12.9144 5.75162 12.6967 5.84408 12.5076C5.93655 12.3186 6.0995 12.1735 6.2979 12.1034C6.49629 12.0333 6.71427 12.0439 6.90493 12.1329C7.09559 12.2219 7.24369 12.3822 7.31738 12.5793C7.42816 12.8924 7.63332 13.1635 7.9046 13.3552C8.17587 13.5469 8.49992 13.6497 8.83208 13.6496V10.4379C7.9803 10.4379 7.1634 10.0995 6.56109 9.49724C5.95879 8.89494 5.62042 8.07804 5.62042 7.22625C5.62042 6.37446 5.95879 5.55756 6.56109 4.95526C7.1634 4.35295 7.9803 4.01458 8.83208 4.01458V3.21167C8.83208 2.99872 8.91668 2.7945 9.06725 2.64392C9.21783 2.49334 9.42205 2.40875 9.635 2.40875Z" fill="url(#paint0_linear_282_2090)"/>
<defs>
<linearGradient id="paint0_linear_282_2090" x1="19.27" y1="19.27" x2="4.59922" y2="12.0569" gradientUnits="userSpaceOnUse">
<stop stop-color="#67C6E3"/>
<stop offset="1" stop-color="#378CE7"/>
</linearGradient>
</defs>
</svg>
