<svg width="20" height="20" viewBox="0 0 20 20" fill="none" xmlns="http://www.w3.org/2000/svg">
<path fill-rule="evenodd" clip-rule="evenodd" d="M0.84672 0.846916C-5.96046e-08 1.69287 0 3.05622 0 5.781V13.489C0 16.2138 -5.96046e-08 17.5771 0.84672 18.4231C1.69248 19.27 3.05551 19.27 5.77966 19.27H13.4859C16.21 19.27 17.5731 19.27 18.4188 18.4231C19.2655 17.5771 19.2655 16.2138 19.2655 13.489V5.781C19.2655 3.05622 19.2655 1.69287 18.4188 0.846916C17.5731 -5.96046e-08 16.21 0 13.4859 0H5.77966C3.05551 0 1.69248 -5.96046e-08 0.84672 0.846916ZM15.2506 7.27924C15.3924 7.06664 15.4439 6.8064 15.3939 6.55578C15.3439 6.30516 15.1963 6.08469 14.9838 5.94287C14.7712 5.80105 14.511 5.74949 14.2605 5.79954C14.0099 5.84959 13.7895 5.99715 13.6477 6.20976L10.7155 10.6101L10.2733 9.72557C9.61158 8.40268 7.76786 8.28706 6.94715 9.51842L4.01494 13.9178C3.87315 14.1304 3.8216 14.3906 3.87164 14.6412C3.92168 14.8918 4.06921 15.1123 4.28177 15.2541C4.49432 15.396 4.7545 15.4475 5.00506 15.3975C5.25562 15.3474 5.47604 15.1998 5.61783 14.9872L8.55005 10.5879L8.99219 11.4714C9.65396 12.7953 11.4977 12.9099 12.3184 11.6786L15.2506 7.27924Z" fill="url(#paint0_linear_282_2082)"/>
<defs>
<linearGradient id="paint0_linear_282_2082" x1="19.2655" y1="19.27" x2="4.59683" y2="12.0596" gradientUnits="userSpaceOnUse">
<stop stop-color="#67C6E3"/>
<stop offset="1" stop-color="#378CE7"/>
</linearGradient>
</defs>
</svg>
